# File created by Blade
# Date/Time:  Wed Jan 21 16:20:09 2015
#---------------------------------------------------------
:version 1.10
:name HOM
:units
  mass 1.0
  length 1.000000
  angle deg
:documentation
     Acclaim Skeleton File
:root
   axis xyz
   order TX TY TZ RX RY RZ
   position 0.000000 0.000000 0.000000
   orientation 0 0 0
:bonedata
   begin
      id 1
      name Spine_dum
      direction 0.000000 1.000000 0.000000
      length 7.067664
      axis 0.0 0.0 0.0 xyz
   end
   begin
      id 2
      name LeftUpLeg_dum
      direction 1.000000 0.000000 0.000000
      length 4.013002
      axis 0.0 0.0 0.0 xyz
   end
   begin
      id 3
      name RightUpLeg_dum
      direction -1.000000 0.000000 0.000000
      length 4.013002
      axis 0.0 0.0 0.0 xyz
   end
   begin
      id 4
      name Spine
      direction 0.000000 1.000000 0.000000
      length 0.000000
      axis 0.0 0.0 0.0 xyz
      dof rx ry rz
   end
   begin
      id 5
      name Spine_dum1
      direction 0.000000 1.000000 0.000000
      length 15.039886
      axis 0.0 0.0 0.0 xyz
   end
   begin
      id 6
      name Spine_dum2
      direction 0.000000 1.000000 0.000000
      length 10.530368
      axis 0.0 0.0 0.0 xyz
   end
   begin
      id 7
      name Spine_dum3
      direction 0.000000 1.000000 0.000000
      length 10.530368
      axis 0.0 0.0 0.0 xyz
   end
   begin
      id 8
      name Head
      direction 0.000000 1.000000 0.000000
      length 4.527550
      axis 0.0 0.0 0.0 xyz
      dof rx ry rz
   end
   begin
      id 9
      name LeftShoulder
      direction 1.000000 0.000000 0.000000
      length 7.028855
      axis 0.0 0.0 -90.0 xyz
      dof rx ry rz
   end
   begin
      id 10
      name LeftArm
      direction 1.000000 0.000000 0.000000
      length 10.797705
      axis 0.0 0.0 -90.0 xyz
      dof rx ry rz
   end
   begin
      id 11
      name LeftForeArm
      direction 1.000000 0.000000 0.000000
      length 7.907442
      axis 0.0 0.0 -90.0 xyz
      dof ry rz rx
   end
   begin
      id 12
      name LeftHand
      direction 0.000000 0.000000 0.000000
      length 0.000000
      axis 0.0 0.0 -90.0 xyz
      dof rx ry rz
   end
   begin
      id 13
      name LeftHand_dum1
      direction 0.000000 0.000000 0.000000
      length 0.000000
      axis 0.0 0.0 -90.0 xyz
   end
   begin
      id 14
      name LeftHand_dum2
      direction 1.000000 0.000000 0.000000
      length 3.937000
      axis 0.0 0.0 -90.0 xyz
   end
   begin
      id 15
      name LeftHandThumb1
      direction 0.000000 0.000000 1.000000
      length 3.937000
      axis 0.0 0.0 -90.0 xyz
      dof rx rz ry
   end
   begin
      id 16
      name RightShoulder
      direction -1.000000 0.000000 0.000000
      length 7.028855
      axis 0.0 0.0 90.0 xyz
      dof rx ry rz
   end
   begin
      id 17
      name RightArm
      direction -1.000000 0.000000 0.000000
      length 10.797705
      axis 0.0 0.0 90.0 xyz
      dof rx ry rz
   end
   begin
      id 18
      name RightForeArm
      direction -1.000000 0.000000 0.000000
      length 7.907442
      axis 0.0 0.0 90.0 xyz
      dof ry rz rx
   end
   begin
      id 19
      name RightHand
      direction 0.000000 0.000000 0.000000
      length 0.000000
      axis 0.0 0.0 90.0 xyz
      dof rx ry rz
   end
   begin
      id 20
      name RightHand_dum1
      direction 0.000000 0.000000 0.000000
      length 0.000000
      axis 0.0 0.0 90.0 xyz
   end
   begin
      id 21
      name RightHand_dum2
      direction -1.000000 0.000000 0.000000
      length 3.937000
      axis 0.0 0.0 90.0 xyz
   end
   begin
      id 22
      name RightHandThumb1
      direction 0.000000 0.000000 1.000000
      length 3.937000
      axis 0.0 0.0 90.0 xyz
      dof rx rz ry
   end
   begin
      id 23
      name LeftUpLeg
      direction 0.000000 -1.000000 0.000000
      length 16.899758
      axis 0.0 0.0 0.0 xyz
      dof rx ry rz
   end
   begin
      id 24
      name LeftLeg
      direction 0.000000 -1.000000 0.000000
      length 17.389183
      axis 0.0 0.0 0.0 xyz
      dof rx ry rz
   end
   begin
      id 25
      name LeftFoot
      direction 0.000000 -0.258819 0.965926
      length 4.924528
      axis 15.0 0.0 0.0 xyz
      dof rx ry rz
   end
   begin
      id 26
      name LeftToeBase
      direction 0.000000 0.000000 1.000000
      length 2.952750
      axis 0.0 0.0 0.0 xyz
      dof rx ry rz
   end
   begin
      id 27
      name RightUpLeg
      direction 0.000000 -1.000000 0.000000
      length 16.899758
      axis 0.0 0.0 0.0 xyz
      dof rx ry rz
   end
   begin
      id 28
      name RightLeg
      direction 0.000000 -1.000000 0.000000
      length 17.389183
      axis 0.0 0.0 0.0 xyz
      dof rx ry rz
   end
   begin
      id 29
      name RightFoot
      direction 0.000000 -0.258819 0.965926
      length 4.924528
      axis 15.0 0.0 0.0 xyz
      dof rx ry rz
   end
   begin
      id 30
      name RightToeBase
      direction 0.000000 0.000000 1.000000
      length 2.952750
      axis 0.0 0.0 0.0 xyz
      dof rx ry rz
   end
:hierarchy
   begin
      root Spine_dum LeftUpLeg_dum RightUpLeg_dum
      Spine_dum Spine
      LeftUpLeg_dum LeftUpLeg
      RightUpLeg_dum RightUpLeg
      Spine Spine_dum1 Spine_dum2 Spine_dum3
      Spine_dum1 Head
      Spine_dum2 LeftShoulder
      Spine_dum3 RightShoulder
      LeftShoulder LeftArm
      LeftArm LeftForeArm
      LeftForeArm LeftHand
      LeftHand LeftHand_dum1 LeftHand_dum2
      LeftHand_dum1 LeftHandThumb1
      RightShoulder RightArm
      RightArm RightForeArm
      RightForeArm RightHand
      RightHand RightHand_dum1 RightHand_dum2
      RightHand_dum1 RightHandThumb1
      LeftUpLeg LeftLeg
      LeftLeg LeftFoot
      LeftFoot LeftToeBase
      RightUpLeg RightLeg
      RightLeg RightFoot
      RightFoot RightToeBase
   end

# File created by Blade
# Date/Time:  Wed Jan 21 16:20:01 2015
# Frame Rate: 120.000 fps
#------------------------------------------------------
:FULLY-SPECIFIED
:DEGREES
105
root 16.094696 35.912370 -19.346908 -183.355402 0.151081 -178.027211
Spine 2.804794 -0.015671 1.616166
Head 27.297816 -1.386116 0.949658
LeftShoulder -11.271114 -22.838916 -2.296129
LeftArm -13.105778 -3.538657 -54.512976
LeftForeArm -1.634317 -0.000000 -0.355516
LeftHand -7.897787 -0.000000 -1.360654
LeftHandThumb1 -26.253704 0.000000 33.147579
RightShoulder -10.962089 -13.694372 10.336423
RightArm 17.672842 15.910713 63.206486
RightForeArm -29.313244 -0.000000 8.884599
RightHand -5.583226 -0.000000 -0.592717
RightHandThumb1 -24.326973 -0.000000 -32.862282
LeftUpLeg 6.182938 1.273910 -1.628509
LeftLeg -7.189888 -0.000000 0.000000
LeftFoot 1.830213 27.014998 7.650754
LeftToeBase -151.944980 -0.000000 0.000000
RightUpLeg -6.715586 -6.115370 6.198200
RightLeg 21.869110 -0.000000 -0.000000
RightFoot -31.126813 -22.453845 25.994780
RightToeBase 9.867362 -0.000000 -0.000000
106
root 16.118029 35.910392 -19.359081 -183.370341 0.237263 -178.056900
Spine 2.786664 0.133592 1.532989
Head 27.432165 -1.405452 1.009793
LeftShoulder -11.339369 -22.680774 -2.369457
LeftArm -13.588736 -3.986897 -54.984893
LeftForeArm -1.858428 -0.000000 -0.344371
LeftHand -7.765278 -0.000000 -1.426297
LeftHandThumb1 -26.253704 0.000000 33.147579
RightShoulder -11.052226 -13.844976 10.582031
RightArm 17.581016 15.600335 63.624481
RightForeArm -29.175627 -0.000000 8.502477
RightHand -5.201513 -0.000000 -0.214744
RightHandThumb1 -24.326973 -0.000000 -32.862282
LeftUpLeg 6.078554 1.285971 -1.618172
LeftLeg -6.898089 -0.000000 0.000000
LeftFoot 1.730292 27.095573 7.694176
LeftToeBase -151.723209 -0.000000 0.000000
RightUpLeg -6.412023 -5.933228 6.291673
RightLeg 21.487829 -0.000000 -0.000000
RightFoot -30.907094 -22.528629 25.875069
RightToeBase 10.234279 -0.000000 -0.000000
107
root 16.149460 35.908538 -19.381764 -183.456613 0.239120 -178.031348
Spine 2.835831 0.184577 1.498571
Head 27.555075 -1.416149 1.082090
LeftShoulder -11.444021 -22.490693 -2.440787
LeftArm -13.982155 -4.292284 -55.457684
LeftForeArm -2.061770 0.000000 -0.368984
LeftHand -7.683543 -0.000000 -1.504809
LeftHandThumb1 -26.253704 0.000000 33.147579
RightShoulder -11.125739 -13.959433 10.797458
RightArm 17.472280 15.168811 63.989621
RightForeArm -28.930579 -0.000000 8.195930
RightHand -5.171779 -0.000000 0.366929
RightHandThumb1 -24.326973 -0.000000 -32.862282
LeftUpLeg 6.077738 1.210972 -1.542310
LeftLeg -6.644770 -0.000000 0.000000
LeftFoot 1.645260 27.162358 7.792806
LeftToeBase -151.334536 -0.000000 0.000000
RightUpLeg -5.990385 -5.747655 6.415610
RightLeg 21.057935 -0.000000 -0.000000
RightFoot -30.728201 -22.617645 25.927046
RightToeBase 10.690689 -0.000000 -0.000000
108
root 16.175565 35.904852 -19.390008 -183.458753 0.254497 -178.054412
Spine 2.813778 0.264047 1.428624
Head 27.652637 -1.436224 1.128039
LeftShoulder -11.534252 -22.296201 -2.550495
LeftArm -14.315698 -4.557422 -55.883287
LeftForeArm -2.116881 0.000000 -0.439280
LeftHand -7.586026 0.000000 -1.830837
LeftHandThumb1 -26.253704 0.000000 33.147579
RightShoulder -11.164366 -14.025584 10.984390
RightArm 17.320068 14.753799 64.322461
RightForeArm -28.798034 0.000000 7.941481
RightHand -5.214890 -0.000000 0.872290
RightHandThumb1 -24.326973 -0.000000 -32.862282
LeftUpLeg 5.959880 0.982272 -1.534098
LeftLeg -6.351825 -0.000000 0.000000
LeftFoot 1.574384 27.353782 7.893841
LeftToeBase -151.038610 -0.000000 0.000000
RightUpLeg -5.708104 -5.766496 6.478964
RightLeg 20.679664 -0.000000 -0.000000
RightFoot -30.464479 -22.557460 26.005194
RightToeBase 10.788980 -0.000000 -0.000000
